<svg xmlns="http://www.w3.org/2000/svg" viewBox="0 0 353.75 91.24"><defs><style>.cls-1,.cls-2{fill:none;stroke:#102e7c;stroke-miterlimit:10;}.cls-2{stroke-width:2px;}.cls-3{fill:#0b2978;}</style></defs><g id="Layer_2" data-name="Layer 2"><g id="Layer_1-2" data-name="Layer 1"><polyline class="cls-1" points="305.6 34.58 305.6 21.88 310.66 21.88 310.66 34.58 305.6 34.58"/><polyline class="cls-1" points="319.02 42.5 331.79 42.5 331.79 48.74 319.46 48.74 319.02 42.5"/><polyline class="cls-1" points="305.6 56.95 305.6 68.41 310.66 68.41 310.66 56.95 305.6 56.95"/><circle class="cls-2" cx="308.13" cy="45.62" r="44.62"/><circle class="cls-2" cx="308.13" cy="45.62" r="29.39"/><circle class="cls-2" cx="308.13" cy="45.62" r="23.87"/><circle class="cls-2" cx="308.13" cy="45.62" r="11.33"/><circle class="cls-2" cx="308.13" cy="45.62" r="6.44"/><polygon class="cls-1" points="284.33 47.52 284.25 42.5 297.24 42.5 296.8 47.99 284.33 47.52"/><path class="cls-1" d="M305.6,1V7.53s4.61,1,7.32-6.52Z"/><path class="cls-1" d="M352.74,42H345.8s-1,4.62,6.94,7.32Z"/><path class="cls-1" d="M311.79,90.24V83.89s-4.62-1-7.32,6.35Z"/><path class="cls-1" d="M263.54,48h6.67s1-4.62-6.67-7.32Z"/><path class="cls-1" d="M337.84,12.26l-4.92,4.92s2.53,4,10.09.26Z"/><path class="cls-1" d="M279.29,79l5-5s-2.52-4-10.13-.22Z"/><path class="cls-1" d="M344.26,72l-4.62-4.62s-4,2.57-.56,9.79Z"/><path class="cls-1" d="M275,16.14l4.69,4.69s4-2.57.48-9.87Z"/><path class="cls-3" d="M10.49,42.47,22,13.75H83.68V15.3l-57.36,59v.43l9.37-.34s12.05,0,37.93-28.21h1.72L63.12,76.44H0V75.07L57.36,15.81v-.43L50,15.73s-14.4.33-37.76,26.74Z"/><path class="cls-3" d="M90.22,13.75h41v1.37s-8.44-.19-9.89,2.71c0,0-19.37,44.61-21.93,54.83,0,0-.93,2.85,8.51,2.41v1.37H67.08V75.07l4.73-.35a6.65,6.65,0,0,0,4.69-2S80,68.4,86.65,50.64c0,0,11.83-28.91,12.17-32.51,0,0,0-3.18-8.6-3Z"/><path class="cls-3" d="M122.75,15.86s3.49-.53,5.25,2.07c0,0,5.81,14.49,10.83,30.61,0,0-9.35,23.76-11.05,24.64,0,0-2.58,2.47-9.41,2.37v1.37h40.85V75.55s-8.9.39-8.52-2.33a53.17,53.17,0,0,1,2.15-7s11.41-30.95,23.91-47.47c0,0,3-2.4,3.35-.86,0,0-4.56,7-3.44,8.94,0,0-.77,3.83,3.44,7.62,0,0,4.67,3.17,7.83,2.27,0,0,4.42,1,8.43-3.35,0,0,3.09-2.28,3.27-8.51a11.59,11.59,0,0,0-3.66-8.3s-4-3.48-8.81-3.23c0,0-6.14-.42-10.62,3.53,0,0-3.21,2.62-7.4,9.93L159,46.48s-4.8-14.87-7.14-22.36c0,0-2.5-6.76,1.25-7.7,0,0,6.2-1,7.09-.82V14.23l-37.4.1Z"/><path class="cls-3" d="M236.9,44.62s9.25.25,16.39-4.53a14.07,14.07,0,0,0,6.56-8.73s1.72-6.35-1.8-10.84c0,0-2.25-4.37-12.94-6.25a43.7,43.7,0,0,0-6.4-.52h-41v1.37s5.27-.24,7,.56c0,0,1.69.2,1.64,2.45a44,44,0,0,1-2.37,7.66L188.05,65.13s-2.38,5.42-4.08,7.57a8.79,8.79,0,0,1-4.69,2l-4.73.35v1.37H215.4V75.07s-5.76,0-6.83-.52a2.54,2.54,0,0,1-1.68-1.89s-.89-2.08,10.23-27.35c0,0,4.76-.53,6.8,0,0,0,3.93-.82,4.12,4.21l-1.63,6.24s-2.23,6.45-1.63,8.13A11.9,11.9,0,0,0,228.83,74s3.78,3.43,11.4,3.44A19.52,19.52,0,0,0,251.91,74s4-3.16,7.52-10.75l-1.11-.43s-3.32,7.25-6.67,9.68c0,0-3.39,2.29-4.4.82A2.09,2.09,0,0,1,247,72a25.77,25.77,0,0,1,1-4.3s2.07-7.3.27-12.56c0,0-2.56-5.89-7.31-8,0,0-3.85-1.43-6.24-2v-.51Zm-10.72-1.11-8.37.25,11.7-28.46c7.53.06,6.49.46,6.49.46a4.93,4.93,0,0,1,3.25,4c1.18,6-2,13.14-2,13.14C232.37,43.51,226.18,43.51,226.18,43.51Z"/></g></g></svg>